<svg xmlns="http://www.w3.org/2000/svg" viewBox="0 0 64 64">
  <!-- Mucca: trappolaia, mucca classica bianca/nera -->
  <ellipse cx="32" cy="54" rx="22" ry="5" fill="#000" opacity="0.18"/>
  <!-- corpo -->
  <ellipse cx="32" cy="38" rx="20" ry="14" fill="#ffffff"/>
  <!-- macchie nere -->
  <path d="M18 32 Q20 24 28 26 Q26 36 18 32" fill="#1a1a1a"/>
  <path d="M40 44 Q48 42 46 34 Q38 36 40 44" fill="#1a1a1a"/>
  <ellipse cx="34" cy="30" rx="3" ry="2" fill="#1a1a1a"/>
  <!-- zampe -->
  <rect x="20" y="48" width="5" height="9" fill="#1a1a1a"/>
  <rect x="39" y="48" width="5" height="9" fill="#1a1a1a"/>
  <!-- mammella -->
  <ellipse cx="32" cy="50" rx="6" ry="3" fill="#f7b8b8"/>
  <!-- testa -->
  <ellipse cx="32" cy="20" rx="12" ry="11" fill="#ffffff"/>
  <ellipse cx="27" cy="17" rx="4" ry="3" fill="#1a1a1a"/>
  <!-- muso -->
  <ellipse cx="32" cy="25" rx="7" ry="5" fill="#f6c6b0"/>
  <circle cx="29" cy="25" r="1.2" fill="#3a2a1a"/>
  <circle cx="35" cy="25" r="1.2" fill="#3a2a1a"/>
  <!-- occhi -->
  <circle cx="28" cy="17" r="1.6" fill="#fff"/>
  <circle cx="28" cy="17" r="0.9" fill="#222"/>
  <circle cx="36" cy="17" r="1.6" fill="#222"/>
  <!-- orecchie -->
  <ellipse cx="20" cy="16" rx="3" ry="4" fill="#ffffff"/>
  <ellipse cx="44" cy="16" rx="3" ry="4" fill="#ffffff"/>
  <!-- cornini -->
  <path d="M24 10 Q22 6 26 6" stroke="#bfa066" stroke-width="2.5" fill="none" stroke-linecap="round"/>
  <path d="M40 10 Q42 6 38 6" stroke="#bfa066" stroke-width="2.5" fill="none" stroke-linecap="round"/>
</svg>
